<svg width="80" height="97" viewBox="0 0 80 97" fill="none" xmlns="http://www.w3.org/2000/svg">
<path d="M79.1928 59.2625C79.1928 80.2122 62.3492 96 40.0084 96C17.6676 96 0.807281 80.2122 0.807281 59.2625C0.807281 39.9385 28.4106 8.73183 33.9414 2.6648C35.5 0.955306 37.6956 0 40.0084 0C42.3213 0 44.5168 0.972065 46.0754 2.6648C51.5894 8.73183 79.1928 39.9552 79.1928 59.2625Z" fill="#E1E1E1"/>
<path d="M79 55.8782C79 83.4925 64.6143 96.3785 37 96.3785C12 96.3785 1.00002 78.7017 1.00002 61.2017C1.00002 33.5875 9.50002 61.3782 38 55.8782C60 47.3784 75 36.3782 79 55.8782Z" fill="#BD4A4A"/>
<path d="M32.56 42.03H42.85C44.83 42.03 46.38 42.52 47.5 43.5C48.62 44.48 49.18 45.9 49.18 47.76C49.18 48.7 48.96 49.56 48.52 50.34C48.08 51.1 47.48 51.69 46.72 52.11C47.76 52.49 48.54 53.07 49.06 53.85C49.58 54.61 49.84 55.61 49.84 56.85C49.84 58.11 49.55 59.21 48.97 60.15C48.41 61.07 47.63 61.78 46.63 62.28C45.65 62.76 44.56 63 43.36 63H32.56V42.03ZM41.98 50.55C42.78 50.55 43.41 50.35 43.87 49.95C44.33 49.55 44.56 48.91 44.56 48.03C44.56 47.07 44.33 46.41 43.87 46.05C43.43 45.69 42.75 45.51 41.83 45.51H37.12V50.55H41.98ZM42.25 59.52C43.23 59.52 43.97 59.33 44.47 58.95C44.99 58.55 45.25 57.86 45.25 56.88C45.25 55.88 44.98 55.16 44.44 54.72C43.92 54.28 43.14 54.06 42.1 54.06H37.12V59.52H42.25Z" fill="white"/>
</svg>
