<svg width="80" height="96" viewBox="0 0 80 96" fill="none" xmlns="http://www.w3.org/2000/svg">
<path d="M79.1927 59.2625C79.1927 80.2122 62.3492 96 40.0084 96C17.6676 96 0.807251 80.2122 0.807251 59.2625C0.807251 39.9385 28.4106 8.73183 33.9413 2.6648C35.5 0.955306 37.6955 0 40.0084 0C42.3212 0 44.5168 0.972065 46.0754 2.6648C51.5894 8.73183 79.1927 39.9552 79.1927 59.2625Z" fill="#E1E1E1"/>
<path d="M79 55.1327C79 82.7469 64.6142 95.6329 37 95.6329C12 95.6329 1 77.9562 1 60.4562C1 32.8419 11 45.7544 39.5 40.2544C61.5 31.7546 75 35.6327 79 55.1327Z" fill="#BD4A4A"/>
<path d="M41.18 63.45C39.08 63.45 37.17 62.99 35.45 62.07C33.75 61.15 32.41 59.87 31.43 58.23C30.45 56.57 29.96 54.67 29.96 52.53C29.96 50.39 30.45 48.49 31.43 46.83C32.41 45.17 33.75 43.88 35.45 42.96C37.17 42.04 39.08 41.58 41.18 41.58C43.28 41.58 45.17 42.04 46.85 42.96C48.55 43.88 49.89 45.17 50.87 46.83C51.85 48.49 52.34 50.39 52.34 52.53C52.34 54.67 51.85 56.57 50.87 58.23C49.89 59.87 48.55 61.15 46.85 62.07C45.17 62.99 43.28 63.45 41.18 63.45ZM41.18 59.25C42.38 59.25 43.47 58.98 44.45 58.44C45.45 57.88 46.24 57.1 46.82 56.1C47.4 55.08 47.69 53.89 47.69 52.53C47.69 51.19 47.4 50.02 46.82 49.02C46.26 48 45.48 47.22 44.48 46.68C43.5 46.12 42.4 45.84 41.18 45.84C39.94 45.84 38.82 46.12 37.82 46.68C36.84 47.22 36.06 48 35.48 49.02C34.9 50.02 34.61 51.19 34.61 52.53C34.61 53.89 34.9 55.08 35.48 56.1C36.06 57.1 36.85 57.88 37.85 58.44C38.85 58.98 39.96 59.25 41.18 59.25Z" fill="white"/>
</svg>
