<svg width="80" height="97" viewBox="0 0 80 97" fill="none" xmlns="http://www.w3.org/2000/svg">
<path d="M79.1928 59.2625C79.1928 80.2122 62.3492 96 40.0084 96C17.6676 96 0.807312 80.2122 0.807312 59.2625C0.807312 39.9385 28.4107 8.73183 33.9414 2.6648C35.5 0.955306 37.6956 0 40.0084 0C42.3213 0 44.5168 0.972065 46.0755 2.6648C51.5894 8.73183 79.1928 39.9552 79.1928 59.2625Z" fill="#E1E1E1"/>
<path d="M79.8855 59.3211C79.8855 80.2707 63.042 96.0588 40.7012 96.0588C18.3604 96.0588 1.50006 80.2707 1.50006 59.3211C1.50006 39.9971 10.3236 34.4869 17.5001 30.5C22.0001 28 33.6202 29.6728 30.5001 29.3212C27.3799 28.9696 48.4414 30.807 50.0001 32.4997C54.5001 32.4997 79.8855 40.0138 79.8855 59.3211Z" fill="#BD4A4A"/>
<path d="M28.3601 42.03H32.8301L41.2001 63H36.5501L34.7501 58.44H26.4401L24.6401 63H19.9601L28.3601 42.03ZM33.5501 54.81L30.5801 46.83L27.6101 54.81H33.5501ZM43.7339 42.03H54.0239C56.0039 42.03 57.5539 42.52 58.6739 43.5C59.7939 44.48 60.3539 45.9 60.3539 47.76C60.3539 48.7 60.1339 49.56 59.6939 50.34C59.2539 51.1 58.6539 51.69 57.8939 52.11C58.9339 52.49 59.7139 53.07 60.2339 53.85C60.7539 54.61 61.0139 55.61 61.0139 56.85C61.0139 58.11 60.7239 59.21 60.1439 60.15C59.5839 61.07 58.8039 61.78 57.8039 62.28C56.8239 62.76 55.7339 63 54.5339 63H43.7339V42.03ZM53.1539 50.55C53.9539 50.55 54.5839 50.35 55.0439 49.95C55.5039 49.55 55.7339 48.91 55.7339 48.03C55.7339 47.07 55.5039 46.41 55.0439 46.05C54.6039 45.69 53.9239 45.51 53.0039 45.51H48.2939V50.55H53.1539ZM53.4239 59.52C54.4039 59.52 55.1439 59.33 55.6439 58.95C56.1639 58.55 56.4239 57.86 56.4239 56.88C56.4239 55.88 56.1539 55.16 55.6139 54.72C55.0939 54.28 54.3139 54.06 53.2739 54.06H48.2939V59.52H53.4239Z" fill="white"/>
</svg>
