<svg width="80" height="96" viewBox="0 0 80 96" fill="none" xmlns="http://www.w3.org/2000/svg">
<path d="M79.1928 59.2625C79.1928 80.2122 62.3492 96 40.0084 96C17.6676 96 0.807281 80.2122 0.807281 59.2625C0.807281 39.9385 28.4106 8.73183 33.9414 2.6648C35.5 0.955306 37.6956 0 40.0084 0C42.3213 0 44.5168 0.972065 46.0754 2.6648C51.5894 8.73183 79.1928 39.9552 79.1928 59.2625Z" fill="#BD4A4A"/>
<path d="M27.36 46.03H31.83L40.2 67H35.55L33.75 62.44H25.44L23.64 67H18.96L27.36 46.03ZM32.55 58.81L29.58 50.83L26.61 58.81H32.55ZM42.7338 46.03H53.0238C55.0038 46.03 56.5538 46.52 57.6738 47.5C58.7938 48.48 59.3538 49.9 59.3538 51.76C59.3538 52.7 59.1338 53.56 58.6938 54.34C58.2538 55.1 57.6538 55.69 56.8938 56.11C57.9338 56.49 58.7138 57.07 59.2338 57.85C59.7538 58.61 60.0138 59.61 60.0138 60.85C60.0138 62.11 59.7238 63.21 59.1438 64.15C58.5838 65.07 57.8038 65.78 56.8038 66.28C55.8238 66.76 54.7338 67 53.5338 67H42.7338V46.03ZM52.1538 54.55C52.9538 54.55 53.5838 54.35 54.0438 53.95C54.5038 53.55 54.7338 52.91 54.7338 52.03C54.7338 51.07 54.5038 50.41 54.0438 50.05C53.6038 49.69 52.9238 49.51 52.0038 49.51H47.2938V54.55H52.1538ZM52.4238 63.52C53.4038 63.52 54.1438 63.33 54.6438 62.95C55.1638 62.55 55.4238 61.86 55.4238 60.88C55.4238 59.88 55.1538 59.16 54.6138 58.72C54.0938 58.28 53.3138 58.06 52.2738 58.06H47.2938V63.52H52.4238Z" fill="white"/>
</svg>
