<svg width="80" height="96" viewBox="0 0 80 96" fill="none" xmlns="http://www.w3.org/2000/svg">
<path d="M79.1927 59.2625C79.1927 80.2122 62.3492 96 40.0084 96C17.6676 96 0.807266 80.2122 0.807266 59.2625C0.807266 39.9385 28.4106 8.73183 33.9413 2.6648C35.5 0.955306 37.6955 0 40.0084 0C42.3212 0 44.5168 0.972065 46.0754 2.6648C51.5894 8.73183 79.1927 39.9552 79.1927 59.2625Z" fill="#BD4A4A"/>
<path d="M31.56 45.03H41.85C43.83 45.03 45.38 45.52 46.5 46.5C47.62 47.48 48.18 48.9 48.18 50.76C48.18 51.7 47.96 52.56 47.52 53.34C47.08 54.1 46.48 54.69 45.72 55.11C46.76 55.49 47.54 56.07 48.06 56.85C48.58 57.61 48.84 58.61 48.84 59.85C48.84 61.11 48.55 62.21 47.97 63.15C47.41 64.07 46.63 64.78 45.63 65.28C44.65 65.76 43.56 66 42.36 66H31.56V45.03ZM40.98 53.55C41.78 53.55 42.41 53.35 42.87 52.95C43.33 52.55 43.56 51.91 43.56 51.03C43.56 50.07 43.33 49.41 42.87 49.05C42.43 48.69 41.75 48.51 40.83 48.51H36.12V53.55H40.98ZM41.25 62.52C42.23 62.52 42.97 62.33 43.47 61.95C43.99 61.55 44.25 60.86 44.25 59.88C44.25 58.88 43.98 58.16 43.44 57.72C42.92 57.28 42.14 57.06 41.1 57.06H36.12V62.52H41.25Z" fill="white"/>
</svg>
