<svg width="80" height="96" viewBox="0 0 80 96" fill="none" xmlns="http://www.w3.org/2000/svg">
<path d="M79.1927 59.2625C79.1927 80.2122 62.3492 96 40.0084 96C17.6676 96 0.807266 80.2122 0.807266 59.2625C0.807266 39.9385 28.4106 8.73183 33.9413 2.6648C35.5 0.955306 37.6955 0 40.0084 0C42.3212 0 44.5168 0.972065 46.0754 2.6648C51.5894 8.73183 79.1927 39.9552 79.1927 59.2625Z" fill="#BD4A4A"/>
<path d="M40.18 67.45C38.08 67.45 36.17 66.99 34.45 66.07C32.75 65.15 31.41 63.87 30.43 62.23C29.45 60.57 28.96 58.67 28.96 56.53C28.96 54.39 29.45 52.49 30.43 50.83C31.41 49.17 32.75 47.88 34.45 46.96C36.17 46.04 38.08 45.58 40.18 45.58C42.28 45.58 44.17 46.04 45.85 46.96C47.55 47.88 48.89 49.17 49.87 50.83C50.85 52.49 51.34 54.39 51.34 56.53C51.34 58.67 50.85 60.57 49.87 62.23C48.89 63.87 47.55 65.15 45.85 66.07C44.17 66.99 42.28 67.45 40.18 67.45ZM40.18 63.25C41.38 63.25 42.47 62.98 43.45 62.44C44.45 61.88 45.24 61.1 45.82 60.1C46.4 59.08 46.69 57.89 46.69 56.53C46.69 55.19 46.4 54.02 45.82 53.02C45.26 52 44.48 51.22 43.48 50.68C42.5 50.12 41.4 49.84 40.18 49.84C38.94 49.84 37.82 50.12 36.82 50.68C35.84 51.22 35.06 52 34.48 53.02C33.9 54.02 33.61 55.19 33.61 56.53C33.61 57.89 33.9 59.08 34.48 60.1C35.06 61.1 35.85 61.88 36.85 62.44C37.85 62.98 38.96 63.25 40.18 63.25Z" fill="white"/>
</svg>
