<svg width="80" height="96" viewBox="0 0 80 96" fill="none" xmlns="http://www.w3.org/2000/svg">
<path d="M79.1928 59.2625C79.1928 80.2122 62.3492 96 40.0084 96C17.6676 96 0.807281 80.2122 0.807281 59.2625C0.807281 39.9385 28.4106 8.73183 33.9414 2.6648C35.5 0.955306 37.6956 0 40.0084 0C42.3213 0 44.5168 0.972065 46.0754 2.6648C51.5894 8.73183 79.1928 39.9552 79.1928 59.2625Z" fill="#BD4A4A"/>
<path d="M37.36 46.03H41.83L50.2 67H45.55L43.75 62.44H35.44L33.64 67H28.96L37.36 46.03ZM42.55 58.81L39.58 50.83L36.61 58.81H42.55Z" fill="white"/>
</svg>
