<svg width="133" height="28" viewBox="0 0 133 28" fill="none" xmlns="http://www.w3.org/2000/svg">
<path d="M17.0238 26.4757C15.8842 27.5421 14.1299 27.5421 12.9904 26.4603L12.8254 26.3057C4.95345 18.9645 -0.189571 14.1579 0.00535452 8.16134C0.0953199 5.53396 1.39982 3.01477 3.51401 1.53107C7.47248 -1.25086 12.3606 0.0473766 14.9996 3.23114C17.6386 0.0473766 22.5267 -1.26631 26.4852 1.53107C28.5994 3.01477 29.9039 5.53396 29.9938 8.16134C30.2037 14.1579 25.0457 18.9645 17.1738 26.3366L17.0238 26.4757Z" fill="#EF5D5D"/>
<rect x="13.1188" y="8.18164" width="3.76176" height="10.9091" rx="1.05547" fill="white"/>
<rect x="20.4543" y="11.7554" width="3.76176" height="10.9091" rx="1.05547" transform="rotate(90 20.4543 11.7554)" fill="white"/>
<path d="M40.8 3.03H49.56C51.88 3.03 53.67 3.6 54.93 4.74C56.19 5.88 56.82 7.53 56.82 9.69C56.82 11.23 56.44 12.54 55.68 13.62C54.92 14.7 53.84 15.47 52.44 15.93L56.7 24H52.8L48.75 16.32H44.61V24H40.8V3.03ZM48.87 13.17C50.11 13.17 51.11 12.88 51.87 12.3C52.63 11.72 53.01 10.85 53.01 9.69C53.01 7.35 51.63 6.18 48.87 6.18H44.61V13.17H48.87ZM59.8137 1.83H63.5937V11.43C64.9537 9.91 66.7137 9.15 68.8737 9.15C70.8137 9.15 72.2637 9.68 73.2237 10.74C74.1837 11.78 74.6637 13.17 74.6637 14.91V24H70.8837V15.27C70.8837 13.17 69.9037 12.12 67.9437 12.12C67.0837 12.12 66.2737 12.33 65.5137 12.75C64.7537 13.15 64.1137 13.76 63.5937 14.58V24H59.8137V1.83ZM85.5148 24.45C83.8348 24.45 82.3548 24.15 81.0748 23.55C79.8148 22.93 78.8348 22.05 78.1348 20.91C77.4348 19.75 77.0848 18.38 77.0848 16.8C77.0848 15.26 77.4248 13.92 78.1048 12.78C78.8048 11.62 79.7948 10.73 81.0748 10.11C82.3548 9.47 83.8348 9.15 85.5148 9.15C87.1948 9.15 88.6648 9.47 89.9248 10.11C91.2048 10.73 92.1948 11.62 92.8948 12.78C93.5948 13.92 93.9448 15.26 93.9448 16.8C93.9448 18.38 93.5948 19.75 92.8948 20.91C92.1948 22.05 91.2048 22.93 89.9248 23.55C88.6648 24.15 87.1948 24.45 85.5148 24.45ZM85.5148 21.48C86.8948 21.48 87.9948 21.05 88.8148 20.19C89.6348 19.31 90.0448 18.18 90.0448 16.8C90.0448 15.34 89.6348 14.2 88.8148 13.38C88.0148 12.54 86.9148 12.12 85.5148 12.12C84.1148 12.12 83.0048 12.54 82.1848 13.38C81.3848 14.2 80.9848 15.34 80.9848 16.8C80.9848 18.18 81.3948 19.31 82.2148 20.19C83.0348 21.05 84.1348 21.48 85.5148 21.48ZM96.9328 1.83H100.713V11.43C102.073 9.91 103.833 9.15 105.993 9.15C107.933 9.15 109.383 9.68 110.343 10.74C111.303 11.78 111.783 13.17 111.783 14.91V24H108.003V15.27C108.003 13.17 107.023 12.12 105.063 12.12C104.203 12.12 103.393 12.33 102.633 12.75C101.873 13.15 101.233 13.76 100.713 14.58V24H96.9328V1.83ZM117.373 7.08C116.773 7.08 116.263 6.88 115.843 6.48C115.443 6.08 115.243 5.58 115.243 4.98C115.243 4.38 115.443 3.88 115.843 3.48C116.263 3.06 116.773 2.85 117.373 2.85C117.973 2.85 118.483 3.06 118.903 3.48C119.323 3.88 119.533 4.38 119.533 4.98C119.533 5.58 119.323 6.08 118.903 6.48C118.483 6.88 117.973 7.08 117.373 7.08ZM115.453 9.6H119.293V24H115.453V9.6ZM128.914 24.45C127.334 24.45 126.134 24.01 125.314 23.13C124.494 22.25 124.084 21.01 124.084 19.41V12.48H121.924V9.6H124.084V5.28H127.864V9.6H131.314V12.48H127.864V18.93C127.864 19.85 128.034 20.51 128.374 20.91C128.714 21.29 129.334 21.48 130.234 21.48C130.854 21.48 131.464 21.34 132.064 21.06V23.94C131.204 24.28 130.154 24.45 128.914 24.45Z" fill="#EF5D5D"/>
</svg>
