<svg width="30" height="28" viewBox="0 0 30 28" fill="none" xmlns="http://www.w3.org/2000/svg">
<path d="M17.0238 26.4757C15.8842 27.5421 14.1299 27.5421 12.9904 26.4603L12.8254 26.3057C4.95345 18.9645 -0.189571 14.1579 0.00535452 8.16134C0.0953199 5.53396 1.39982 3.01477 3.51401 1.53107C7.47248 -1.25086 12.3606 0.0473766 14.9996 3.23114C17.6386 0.0473766 22.5267 -1.26631 26.4852 1.53107C28.5994 3.01477 29.9039 5.53396 29.9938 8.16134C30.2037 14.1579 25.0457 18.9645 17.1738 26.3366L17.0238 26.4757Z" fill="#EF5D5D"/>
<rect x="13.1188" y="8.18164" width="3.76176" height="10.9091" rx="1.05547" fill="white"/>
<rect x="20.4543" y="11.7554" width="3.76176" height="10.9091" rx="1.05547" transform="rotate(90 20.4543 11.7554)" fill="white"/>
</svg>
