<svg width="84" height="89" viewBox="0 0 84 89" fill="none" xmlns="http://www.w3.org/2000/svg">
<path d="M84 46.667C84 56.6633 80.5071 65.8426 74.6763 73.0548C66.9769 82.577 55.1988 88.667 42 88.667C36.4613 88.667 31.1719 87.594 26.3287 85.645C24.2977 84.8279 22.347 83.8567 20.4881 82.746C17.4251 80.915 14.6147 78.7051 12.1226 76.1818C11.1382 75.1876 10.2047 74.1425 9.32367 73.0548C3.49289 65.8426 0 56.6633 0 46.667C0 36.6707 3.49289 27.4914 9.32367 20.2792C10.2047 19.1898 11.1382 18.1447 12.1226 17.1489C16.2471 12.9751 21.2395 9.66105 26.8078 7.50035C31.5197 5.67105 36.6417 4.66699 42 4.66699C47.3583 4.66699 52.4803 5.67105 57.1922 7.50035C64.0894 10.1762 70.1023 14.6223 74.6763 20.2792C80.5071 27.4914 84 36.6707 84 46.667Z" fill="#BD4A4A"/>
<path d="M74.6769 14.2418V73.055C66.9774 82.5771 55.1994 88.6671 42.0006 88.6671C28.8017 88.6671 17.0237 82.5771 9.32422 73.055V14.2418C9.32422 10.5192 12.343 7.50049 16.0655 7.50049H67.9356C71.6581 7.50049 74.6769 10.5192 74.6769 14.2418Z" fill="#F1F1F1"/>
<path d="M18.8645 7.50049C15.1419 7.50049 12.1231 10.5192 12.1231 14.2418V76.182C11.1387 75.1877 10.2052 74.1427 9.32422 73.0549V14.2418C9.32422 10.5192 12.343 7.50049 16.0655 7.50049H18.8645Z" fill="#E0DFDF"/>
<rect x="4.66675" y="7" width="72.3333" height="9.33333" rx="4.66667" fill="#C5C5C5"/>
<rect x="37.3333" width="9.33333" height="23.3333" rx="1" fill="#F05D5D"/>
<rect x="53.6667" y="7" width="9.33333" height="23.3333" rx="1" transform="rotate(90 53.6667 7)" fill="#F05D5D"/>
<rect x="35" y="30.333" width="14" height="14" rx="1" fill="#E7E7E7"/>
<rect x="35" y="30.333" width="14" height="14" rx="1" fill="#E7E7E7"/>
<rect x="16.3333" y="30.333" width="14" height="14" rx="1" fill="#E7E7E7"/>
<rect x="16.3333" y="30.333" width="14" height="14" rx="1" fill="#E7E7E7"/>
<rect x="53.6667" y="30.333" width="14" height="14" rx="1" fill="#E7E7E7"/>
<rect x="53.6667" y="30.333" width="14" height="14" rx="1" fill="#E7E7E7"/>
<rect x="35" y="49" width="14" height="14" rx="1" fill="#E7E7E7"/>
<rect x="35" y="49" width="14" height="14" rx="1" fill="#E7E7E7"/>
<rect x="16.3333" y="49" width="14" height="14" rx="1" fill="#E7E7E7"/>
<rect x="16.3333" y="49" width="14" height="14" rx="1" fill="#E7E7E7"/>
<rect x="53.6667" y="49" width="14" height="14" rx="1" fill="#E7E7E7"/>
<rect x="53.6667" y="49" width="14" height="14" rx="1" fill="#E7E7E7"/>
</svg>
