<svg width="84" height="84" viewBox="0 0 84 84" fill="none" xmlns="http://www.w3.org/2000/svg">
<path d="M84 42C84 51.9963 80.5071 61.1756 74.6763 68.3878C66.9769 77.91 55.1988 84 42 84C36.4613 84 31.1719 82.927 26.3287 80.978C24.2977 80.1609 22.347 79.1897 20.4881 78.079C17.4251 76.248 14.6147 74.0381 12.1226 71.5148C11.1382 70.5206 10.2047 69.4755 9.32367 68.3878C3.49289 61.1756 0 51.9963 0 42C0 32.0037 3.49289 22.8244 9.32367 15.6122C10.2047 14.5228 11.1382 13.4777 12.1226 12.4819C16.2471 8.30812 21.2395 4.99406 26.8078 2.83336C31.5197 1.00406 36.6417 0 42 0C47.3583 0 52.4803 1.00406 57.1922 2.83336C64.0894 5.50922 70.1023 9.95531 74.6763 15.6122C80.5071 22.8244 84 32.0037 84 42Z" fill="#EEC867"/>
<path d="M62.6701 36.3127C62.4844 35.7297 62.1272 35.2161 61.6453 34.8391C61.1633 34.462 60.5788 34.239 59.9682 34.1992L48.9253 33.4263L44.8288 23.1112C44.6072 22.5409 44.2184 22.0509 43.7134 21.7054C43.2085 21.3598 42.6109 21.1749 41.9991 21.1748H41.9962C41.3853 21.1759 40.7889 21.3613 40.2851 21.7068C39.7813 22.0522 39.3934 22.5417 39.1723 23.1112L35.0148 33.4859L24.0329 34.1992C23.4223 34.239 22.8378 34.462 22.3558 34.8391C21.8739 35.2161 21.5167 35.7297 21.331 36.3127C21.1351 36.9041 21.1217 37.5407 21.2927 38.1397C21.4637 38.7388 21.8111 39.2724 22.2897 39.6712L30.7383 46.8124L28.2252 56.6976C28.052 57.3635 28.0838 58.0661 28.3166 58.7135C28.5493 59.361 28.9721 59.9231 29.5297 60.3263C30.0679 60.7179 30.7116 60.9384 31.3769 60.9591C32.0423 60.9799 32.6984 60.7998 33.26 60.4425L41.9759 54.921C41.9875 54.9123 41.9991 54.9065 42.0252 54.921L51.4035 60.8623C51.9126 61.1876 52.5081 61.3516 53.1119 61.333C53.7158 61.3143 54.3 61.1138 54.7881 60.7577C55.2933 60.3925 55.6764 59.8834 55.8874 59.2968C56.0984 58.7103 56.1274 58.0737 55.9706 57.4704L53.3006 46.6715L61.7114 39.6712C62.19 39.2724 62.5374 38.7388 62.7084 38.1397C62.8794 37.5407 62.866 36.9041 62.6701 36.3127Z" fill="white"/>
</svg>
